<?xml version="1.0" encoding="UTF-8"?>
<svg xmlns="http://www.w3.org/2000/svg" xmlns:xlink="http://www.w3.org/1999/xlink" width="64pt" height="64pt" viewBox="0 0 64 64" version="1.1">
<g id="surface10589171">
<path style=" stroke:none;fill-rule:nonzero;fill:rgb(100%,100%,100%);fill-opacity:1;" d="M 32 6 C 17.601562 6 6 17.601562 6 32 C 6 46.398438 17.601562 58 32 58 C 46.398438 58 58 46.398438 58 32 C 58 29.203125 57.625 26.414062 56.625 23.8125 L 53.375 27 C 53.773438 28.601562 54 30.203125 54 32 C 54 44.203125 44.203125 54 32 54 C 19.796875 54 10 44.203125 10 32 C 10 19.796875 19.796875 10 32 10 C 38 10 43.390625 12.390625 47.1875 16.1875 L 50 13.375 C 45.398438 8.773438 39 6 32 6 Z M 54.5625 14.5625 L 32 37.125 L 23.4375 28.5625 L 20.5625 31.4375 L 30.5625 41.4375 L 32 42.8125 L 33.4375 41.4375 L 57.4375 17.4375 Z M 54.5625 14.5625 "/>
</g>
</svg>
